<?xml version="1.0" encoding="utf-8"?>
<!-- Generator: Adobe Illustrator 22.1.0, SVG Export Plug-In . SVG Version: 6.00 Build 0)  -->
<svg version="1.1" id="Layer_1" xmlns="http://www.w3.org/2000/svg" xmlns:xlink="http://www.w3.org/1999/xlink" x="0px" y="0px"
	 viewBox="0 0 1366 768" style="enable-background:new 0 0 1366 768;" xml:space="preserve">
<style type="text/css">
	.st0{fill:#662D91;}
	.st1{fill:#FFFFFF;stroke:#F2F2F2;}
	.st2{stroke:#7C00AA;stroke-miterlimit:10;}
	.st3{fill:#F2F2F2;}
	.st4{fill:#662D91;stroke:#7C00AA;stroke-width:2;stroke-miterlimit:10;}
	.st5{stroke:#7C00AA;}
	.st6{fill:none;stroke:#7C00AA;stroke-miterlimit:10;}
	.st7{fill:#662D91;stroke:#7C00AA;stroke-miterlimit:10;}
</style>
<path d="M-42,491"/>
<g>
</g>
<g>
</g>
<g>
	<g>
		<circle class="st0" cx="570.5" cy="332.5" r="92.5"/>
		<path class="st0" d="M570.5,241c50.5,0,91.5,41,91.5,91.5S621,424,570.5,424c-50.5,0-91.5-41-91.5-91.5S520,241,570.5,241
			 M570.5,239c-51.6,0-93.5,41.9-93.5,93.5s41.9,93.5,93.5,93.5s93.5-41.9,93.5-93.5S622.1,239,570.5,239L570.5,239z"/>
	</g>
	<g>
		<path class="st1" d="M593.5,385.1c0,2.4-0.8,4.4-2.3,6c-1.5,1.5-3.5,2.3-6,2.3h-38.5V276.5h38.3c2.4,0,4.4,0.8,6,2.3
			c1.5,1.5,2.3,3.5,2.3,6v34.7c0,3.1-1.4,5.7-4.2,7.8c-2.7,1.6-5.5,3.3-8.2,4.9l8.8,5.7c2.6,1.6,3.9,4.1,3.9,7.5V385.1z
			 M582.7,320.8v-35.2H557v42.2h15.3L582.7,320.8z M583,384.2v-40.4l-10.5-6.9H557v47.3H583z"/>
	</g>
	<path class="st2" d="M706,372"/>
	<path class="st2" d="M644,443"/>
	<g>
		<path class="st3" d="M570.5,249c46,0,83.5,37.5,83.5,83.5S616.5,416,570.5,416S487,378.5,487,332.5S524.5,249,570.5,249
			 M570.5,247c-47.2,0-85.5,38.3-85.5,85.5s38.3,85.5,85.5,85.5s85.5-38.3,85.5-85.5S617.7,247,570.5,247L570.5,247z"/>
	</g>
	<g>
		<path class="st4" d="M571.3,433.4c-25.4-4.9-54.5-8-74.1-26.6c-18.7-17.8-25.9-47.8-49.5-58.2c-15.3-6.7-33.4-2.8-48.3,4.9
			c-6.8,3.5-13.5,8.1-16.9,15c-3.6,7.4-2.7,16.3-0.2,24.1c2.3,7.1,6,13.9,11.8,18.6c5.7,4.7,13.7,7.2,20.8,5.2s13-9,12.5-16.4
			c-0.5-7.4-8.2-13.9-15.4-12c3,4.2,5.1,11.4,0.3,13.1c-1.3,0.5-2.8,0.3-4.1-0.2c-6.5-2.4-8.8-11.7-4.7-17.3
			c4.1-5.6,12.7-6.7,18.6-3.1c6.7,4.2,9.3,12.6,10.6,20.3c2.7,15.1,3.3,31.7,13.2,43.4c8.1,9.5,20.8,13.6,33.1,15.6
			c22.1,3.5,44.5,1.1,66.7,0.7c36-0.7,72.2,2.5,108.1-0.4c13.3-1.1,27.6-3.5,37.2-12.8c8.4-8,11.9-19.9,13.3-31.4
			c1.3-9.9,1.4-20.5,7.1-28.7c5.6-8.2,19.4-11.6,25.2-3.5c3.4,4.8,2.2,12.1-2.5,15.6c-3,2.2-8.5,2-9.4-1.7c-1-4.1,4.8-7.9,3.4-11.9
			c-8.1,1.4-14.1,10-12.7,18.1c1.4,8.1,10.1,14.1,18.1,12.6c5-0.9,9.2-4.1,12.8-7.7c11.1-11,18.1-28.7,10.4-42.4
			c-4.1-7.3-11.6-12.1-19.2-15.5c-15-6.6-32.9-8.8-47.5-1.3c-22.8,11.6-29.7,41.3-48.7,58.5c-18.7,16.9-43.6,18.3-66.8,24.1
			c-2.1,0.4-4,0.8-5.5,1.1"/>
	</g>
	<g>
		<path class="st5" d="M525.3,487.2c0,0.4-0.1,0.7-0.4,0.9s-0.6,0.4-0.9,0.4h-6v-18.3h6c0.4,0,0.7,0.1,0.9,0.4s0.4,0.6,0.4,0.9v5.4
			c0,0.5-0.2,0.9-0.7,1.2c-0.4,0.3-0.9,0.5-1.3,0.8l1.4,0.9c0.4,0.3,0.6,0.6,0.6,1.2V487.2z M523.6,477.1v-5.5h-4v6.6h2.4
			L523.6,477.1z M523.7,487.1v-6.3l-1.7-1.1h-2.4v7.4H523.7z"/>
		<path class="st5" d="M534.4,488.5h-1.5v-0.3c-0.6,0.1-1.2,0.2-1.9,0.2c-0.8,0.1-1.4,0.1-1.8,0.1c-0.9,0-1.3-0.4-1.3-1.3v-4.2
			c0-0.9,0.4-1.3,1.3-1.3h3.7v-3.4h-3.4v1.9H528v-1.9c0-0.9,0.4-1.3,1.3-1.3h3.8c0.9,0,1.3,0.4,1.3,1.3V488.5z M532.9,487.1v-4h-3.5
			v4.1L532.9,487.1z"/>
		<path class="st5" d="M538.6,488.5h-1.5v-18.3h1.5V488.5z"/>
		<path class="st5" d="M542.9,488.5h-1.5v-18.3h1.5V488.5z"/>
		<path class="st5" d="M551.9,477.1l-2.7,11.3l-1.1,4.4h-1.5l1.1-4.4l-2.8-11.3h1.6l1.9,9l2-9H551.9z"/>
		<path class="st5" d="M555.5,488.5H554v-18.3h1.5V488.5z"/>
		<path class="st5" d="M559.8,474.6h-1.6v-2h1.6V474.6z M559.8,488.5h-1.5v-11.4h1.5V488.5z"/>
		<path class="st5" d="M566.7,471.5h-2.2v5.6h1.9v1.4h-1.9v10H563v-10h-1.3v-1.4h1.3v-5.6c0-0.9,0.4-1.3,1.3-1.3h2.4V471.5z"/>
		<path class="st5" d="M572.4,471.5h-2.2v5.6h1.9v1.4h-1.9v10h-1.5v-10h-1.3v-1.4h1.3v-5.6c0-0.9,0.4-1.3,1.3-1.3h2.4V471.5z"/>
		<path class="st5" d="M575.5,474.6h-1.6v-2h1.6V474.6z M575.5,488.5h-1.5v-11.4h1.5V488.5z"/>
		<path class="st5" d="M584.7,488.5h-1.6v-10l-3.4,0.1v9.9h-1.6v-11.4h1.6v0.3c0.6-0.1,1.2-0.2,1.8-0.2c0.8-0.1,1.4-0.1,1.9-0.1
			c0.9,0,1.3,0.4,1.3,1.3V488.5z"/>
		<path class="st5" d="M599.7,488.5h-1.6v-8.8h-4.4v8.8h-1.6v-18.3h1.6v8.1h4.4v-8.1h1.6V488.5z"/>
		<path class="st5" d="M609,487.2c0,0.9-0.4,1.3-1.3,1.3h-3.9c-0.9,0-1.3-0.4-1.3-1.3v-8.8c0-0.9,0.4-1.3,1.3-1.3h3.9
			c0.9,0,1.3,0.4,1.3,1.3V487.2z M607.5,487.1v-8.7H604v8.7H607.5z"/>
		<path class="st5" d="M615.7,488.5h-2.2c-0.9,0-1.3-0.4-1.3-1.3v-8.7h-1.4v-1.4h1.4v-3.6h1.5v3.6h2v1.4h-2v8.7h2V488.5z"/>
		<path class="st5" d="M624,487.2c0,0.9-0.4,1.3-1.3,1.3H619c-0.9,0-1.3-0.4-1.3-1.3v-8.8c0-0.9,0.4-1.3,1.3-1.3h3.8
			c0.9,0,1.3,0.4,1.3,1.3v4.1l-0.5,0.6h-4.3v4.1h3.4v-2.1h1.5V487.2z M622.5,481.8v-3.4h-3.4v3.4H622.5z"/>
		<path class="st5" d="M628.3,488.5h-1.5v-18.3h1.5V488.5z"/>
	</g>
	<line class="st6" x1="494.4" y1="492.6" x2="651" y2="493"/>
	<polygon class="st7" points="546.2,512.5 541.2,509.7 536,512.3 537,506.6 533,502.5 538.7,501.8 541.3,496.6 543.8,501.9 
		549.5,502.8 545.3,506.8 	"/>
	<polygon class="st7" points="577.2,512.5 572.2,509.7 567,512.3 568,506.6 564,502.5 569.7,501.8 572.3,496.6 574.8,501.9 
		580.5,502.8 576.3,506.8 	"/>
	<polygon class="st7" points="607.2,512.5 602.2,509.7 597,512.3 598,506.6 594,502.5 599.7,501.8 602.3,496.6 604.8,501.9 
		610.5,502.8 606.3,506.8 	"/>
	<g>
	</g>
</g>
<g>
</g>
<g>
</g>
<g>
</g>
<g>
</g>
<g>
</g>
<g>
</g>
<g>
</g>
<g>
</g>
<g>
</g>
<g>
</g>
<g>
</g>
<g>
</g>
<g>
</g>
<g>
</g>
<g>
</g>
</svg>
